<svg width="440" height="440" viewBox="0 0 440 440" fill="none" xmlns="http://www.w3.org/2000/svg">
<g opacity="0.05">
<path d="M28.877 110.979L111.042 28.8237C96.4548 37.1584 82.9095 47.1302 70.6542 58.4414L58.4981 70.5962C47.1855 82.8997 37.2125 96.3939 28.877 110.979Z" fill="#0B315E"/>
<path d="M4.36523 176.268L176.337 4.31641C171.573 5.25901 166.909 6.39998 162.245 7.64025L7.68954 162.178C6.39951 166.842 5.30795 171.555 4.36523 176.268Z" fill="#0B315E"/>
<path d="M0 219.975C0 220.421 0 220.917 0 221.364L221.389 0C220.943 0 220.447 0 220 0C216.825 0 213.6 0.0992642 210.474 0.198486L0.198433 210.449C0.0992 213.625 0 216.8 0 219.975Z" fill="#0B315E"/>
<path d="M3.42322 258.77L258.8 3.42274C255.724 2.87702 252.598 2.38102 249.522 1.98413L1.98438 249.493C2.38131 252.569 2.87744 255.694 3.42322 258.77Z" fill="#0B315E"/>
<path d="M11.7598 291.166L291.201 11.7581C288.521 10.8155 285.792 9.972 283.064 9.17822L9.17969 283.03C9.97355 285.759 10.8667 288.487 11.7598 291.166Z" fill="#0B315E"/>
<path d="M23.9154 319.793L319.879 23.8636C317.497 22.6234 315.066 21.4824 312.635 20.3413L20.3926 312.549C21.5338 315.03 22.675 317.411 23.9154 319.793Z" fill="#0B315E"/>
<path d="M39.1975 345.292L345.382 39.1435C343.248 37.6552 341.115 36.2165 338.932 34.8274L34.8809 338.843C36.2701 341.075 37.709 343.209 39.1975 345.292Z" fill="#0B315E"/>
<path d="M57.2573 368.012L368.056 57.2498C366.171 55.563 364.285 53.8762 362.35 52.239L52.2461 362.307C53.8834 364.242 55.5208 366.127 57.2573 368.012Z" fill="#0B315E"/>
<path d="M77.9977 388.008L388.052 77.9893C386.415 76.0544 384.728 74.1196 383.041 72.2344L72.2422 382.997C74.1772 384.733 76.0626 386.371 77.9977 388.008Z" fill="#0B315E"/>
<path d="M101.466 405.37L405.417 101.454C404.028 99.2706 402.589 97.1374 401.101 95.0042L95.0156 401.054C97.1491 402.492 99.2827 403.931 101.466 405.37Z" fill="#0B315E"/>
<path d="M127.813 419.756L419.807 127.796C418.666 125.366 417.525 122.935 416.284 120.553L120.52 416.284C122.951 417.475 125.382 418.665 127.813 419.756Z" fill="#0B315E"/>
<path d="M157.434 430.921L431.02 157.366C430.226 154.638 429.333 151.909 428.44 149.23L149.297 428.341C151.927 429.284 154.655 430.127 157.434 430.921Z" fill="#0B315E"/>
<path d="M191.023 438.065L438.114 191.003C437.717 187.877 437.221 184.752 436.675 181.676L181.695 436.626C184.821 437.222 187.897 437.668 191.023 438.065Z" fill="#0B315E"/>
<path d="M220 440C223.423 440 226.797 439.901 230.122 439.752L439.752 230.146C439.901 226.773 440 223.399 440 220.026C440 219.728 440 219.48 440 219.182L219.156 440C219.454 440 219.752 440 220 440Z" fill="#0B315E"/>
<path d="M278.598 432.11L432.161 278.565C433.451 273.901 434.592 269.188 435.585 264.425L264.457 435.534C269.22 434.541 273.934 433.351 278.598 432.11Z" fill="#0B315E"/>
<path d="M410.379 330.358L330.348 410.381C363.492 391.082 391.128 363.449 410.379 330.358Z" fill="#0B315E"/>
</g>
</svg>
